<?xml version="1.0" encoding="UTF-8"?>
<svg xmlns="http://www.w3.org/2000/svg" viewBox="0 0 332 150" width="332" height="150">
<path d="M287.17 7.58C288.53 9.82 291.39 11.09 293.12 13.21C294.28 14.64 294.89 16.66 296.35 17.83C296.68 18.72 297 19.61 297.32 20.5C296.78 22.74 297.6 24.68 297.65 26.86C297.73 30.48 294.27 40.84 290.67 42.49C289.33 43.11 283.14 42.01 281.17 42.06C275.53 42.22 265.16 46.75 262.94 52.5C264.53 52.8 270.74 48.75 273.1 48.12C276.16 47.29 280.73 45.96 283.83 46.66C285.69 47.07 287.07 48.18 289.17 47.7C290.46 49.04 292.46 49.18 294.1 49.83C296.83 50.9 299.5 53.18 301.83 55.01C307.66 59.58 306.61 62.59 309.5 67.86C314.24 64.59 306.03 56.05 305.83 52.41C307.03 51.91 308.32 52.14 309.55 51.77C315.41 49.99 323.92 45.77 329.28 50.83C328.32 53.65 329.26 56.77 329.26 59.5C329.25 65.94 328.25 72.39 329.33 78.5C327.9 79.98 328.67 90.74 328.67 93.5C328.67 102.94 328.67 112.39 328.67 121.83C328.67 126.09 329.27 130.9 328.5 135.07C325.14 136.41 319.82 135.11 316.17 135.27C305.95 135.74 295.79 135.89 285.5 136.24C282.33 136.34 273.7 135.68 271.35 137.5C275.07 140.36 285.31 138.92 287.33 142.5C285.28 144.01 281.61 143.56 279.17 143.67C271.39 144.02 263.62 144.04 255.83 144.14C231.93 144.44 207.78 144.26 184 143.19C177.64 142.9 160.07 144.39 155.3 142.5C157.04 140.52 161.32 140.85 163.82 140.61C167.89 140.22 182.36 139.37 184.83 136.67C188.94 136.23 193.06 135.78 197.17 135.33C196.69 133.41 193.3 135.23 192.17 131.27C189.51 129.15 183.42 129.89 180.17 129.88C170.47 129.86 160.9 129.13 151.17 129.02C118.13 128.66 84.77 127.84 51.5 127.96C42.35 127.99 33.24 127.06 24.17 127.33C20.45 127.45 15.85 128.68 12.48 126.5C18.82 124.49 26.42 125.02 32.9 123.92C35.82 123.42 39.29 124.14 41.5 121.67C44.26 122.02 51.31 119.03 54.83 118.64C60.53 118.01 68.53 121.56 73.66 119.81C74.5 119.53 79.3 113.61 79.83 112.57C81.89 112.97 84.96 110.42 87.23 110C90.45 109.39 93.71 110.51 96.68 110.43C97.75 110.4 101.7 102.9 102.17 101.61C103.71 101.62 105.67 98.92 107.12 98.12C109.78 96.66 113.91 95.18 116.84 94.76C118.04 94.59 120.96 94.62 122.16 94.78C124.13 95.03 127.33 97.6 129.17 96.94C130.72 98.24 132.28 99.55 133.83 100.85C136.52 100.73 139.19 97.58 141.9 96.88C144.05 96.32 148.45 97.97 149.95 96.5C149.57 95.16 148.51 94.18 148.11 92.9C147.39 90.58 147.51 86.53 147.87 84.18C148.15 82.38 150.01 80.7 149.65 78.83C151.61 77.49 152.51 74.69 154.2 73.1C156.54 70.92 160.56 70.05 162.5 67.68C166.83 67.34 171.17 67.01 175.5 66.67C176.63 67.8 177.88 67.99 179.5 67.67C182.25 69.5 184.99 71.33 187.74 73.17C187.74 74.72 187.74 76.28 187.74 77.83C191.1 75.12 194.47 72.41 197.83 69.7C198.83 69.37 199.83 69.04 200.83 68.71C203.26 69.26 205.7 68.08 208.15 68.34C212.82 68.85 216.35 70.74 220.59 72.5C220.82 69.19 213.9 65.88 211.17 66.1C209.85 62.58 206.67 59.78 205.9 56.1C205.19 52.72 206.54 48.9 205.68 45.5C206.97 44.2 207.33 41.99 208.01 40.23C209.03 37.55 211.93 34.6 214.17 32.84C215.56 31.75 217.34 30.48 218.9 29.81C220.87 28.95 223.95 29.16 225.5 27.67C226.76 28.28 227.24 28.27 228.5 27.66C230.72 28.31 232.94 28.95 235.17 29.6C235.74 30.23 236.32 30.87 236.9 31.5C237.07 32.5 237.24 33.5 237.41 34.5C239.22 32.9 241.03 31.29 242.83 29.69C246.02 29.29 249.2 28.9 252.39 28.5C252.3 25.67 251.62 22.97 252.18 20.1C254.01 10.71 266.18 3.58 275.17 4.33C277.79 4.55 286.09 7.78 287.17 7.58Z" fill="#c7cfd5" fill-rule="evenodd" stroke="#c7cfd5" stroke-width="0.25" stroke-linejoin="round"/>
</svg>